<svg xmlns:dc="http://purl.org/dc/elements/1.1/" xmlns:cc="http://creativecommons.org/ns#" xmlns:rdf="http://www.w3.org/1999/02/22-rdf-syntax-ns#" xmlns:svg="http://www.w3.org/2000/svg" xmlns="http://www.w3.org/2000/svg" xmlns:sodipodi="http://sodipodi.sourceforge.net/DTD/sodipodi-0.dtd" xmlns:inkscape="http://www.inkscape.org/namespaces/inkscape" width="60" height="48" version="1.1" inkscape:version="0.48.4 r9939" sodipodi:docname="Fr-star.svg" inkscape:export-filename="/home/simsu/Other/projects/Web/Francium/star/img/Fr-star.png" inkscape:export-xdpi="90" inkscape:export-ydpi="90"><rect id="backgroundrect" width="100%" height="100%" x="0" y="0" fill="none" stroke="none"/>
  <metadata id="metadata12">
    <rdf:RDF>
      <cc:Work rdf:about="">
        <dc:format>image/svg+xml</dc:format>
        <dc:type rdf:resource="http://purl.org/dc/dcmitype/StillImage"/>
        <dc:title>Five Pointed Star</dc:title>
      </cc:Work>
    </rdf:RDF>
  </metadata>
  <defs id="defs10"/>
  <sodipodi:namedview pagecolor="#ffffff" bordercolor="#666666" borderopacity="1" objecttolerance="10" gridtolerance="10" guidetolerance="10" inkscape:pageopacity="0" inkscape:pageshadow="2" inkscape:window-width="1368" inkscape:window-height="694" id="namedview8" showgrid="false" inkscape:zoom="11.8" inkscape:cx="21.450717" inkscape:cy="19.873256" inkscape:window-x="0" inkscape:window-y="25" inkscape:window-maximized="1" inkscape:current-layer="svg2"/>
  <title id="title4">Five Pointed Star</title>
  
  
  
<g class="currentLayer" style=""><title>Layer 1</title><path style="fill:#000000;fill-opacity:0;fill-rule:nonzero;stroke:none" d="m16.30026625916,43.4050454815405 c0.0023999999400000005,-0.08297333125900003 0.9366346432508,-3.5067985789967007 2.0760372814324004,-7.608493143121 c1.7390599565235,-6.2603838434904 2.0478399488040004,-7.484837146212401 1.9233906185819003,-7.6271184759887 c-0.08153333129500002,-0.09322666433600003 -2.7368119315797,-2.3305092750706002 -5.9006091858181,-4.9717518757062 l-5.75235918952435,-4.802259879943501 l7.60104447664055,-0.029039999274000007 l7.601043809973901,-0.029039999274000007 l2.5223306036084003,-7.5698344774208 c1.3872826319846001,-4.16340896258144 2.5508199362295,-7.5698344774208 2.585639935359,-7.5698344774208 c0.03482666579600001,0 1.1816893037911,3.39406778181497 2.5485986029517003,7.542373144774001 l2.4852906045344003,7.542371811440701 l7.6215238094619,0.05649333192100002 l7.6215251427952,0.05649333192100002 l-5.875706519774001,4.9041292107301 c-3.2316385858756997,2.6972705992349004 -5.889821186087801,4.9147758771306 -5.9070731856564995,4.927787876805301 c-0.017253332902000002,0.013066666340000005 0.9144826438046001,3.4422172472779 2.0705212815703002,7.620454476155301 c1.1560386377657004,4.1782358955441 2.0854079478648,7.612839809679 2.0652652817017003,7.632453142522 c-0.020146666163000003,0.019613332843000004 -2.8586559285336,-1.9668946174943 -6.3078091756381,-4.4144585563052 c-3.4491519137712006,-2.4475652721442 -6.3248945085443005,-4.4313212225503005 -6.3905371735699,-4.408346556458 c-0.09993333083500001,0.03497333245900001 -10.3763224072586,7.2874878178128 -12.0557903652719,8.508318453958701 c-0.32201732528290006,0.23407866081470002 -0.5349639866259001,0.329799991755 -0.5323266533585,0.23928532735120006 z" id="path3880" inkscape:connector-curvature="0"/><path style="fill-rule: nonzero; stroke: none;" d="M0,-2.6666667 L0,50.6666653 L59.999998500000004,50.6666653 L59.999998500000004,-2.6666667 L0,-2.6666667 zM30.291665909375002,-0.9583334093749998 L37.41666573125,17.91666611875 L58.8333318625,17.91666611875 L42.166665612500005,30.083332481250004 L48.124998796875005,48.958332009375 L30.291665909375002,37.874998953125 L12.458333021875001,48.958332009375 L18.374999540625,30.083332481250004 L1.7499999562500002,17.91666611875 L23.124999421875,17.91666611875 L30.291665909375002,-0.9583334093749998 z" id="rect3900" class="selected" fill="#ffffff" fill-opacity="1"/><path d="m 30.276833,-0.95150867 7.1347,18.85225167 H 58.815642 L 42.168004,30.099257 48.113588,48.951509 30.276833,37.861951 12.440082,48.951509 18.385668,30.099257 1.73803,17.900743 h 21.404104 z" id="path6" inkscape:connector-curvature="0" style="fill:none;stroke:#000000;stroke-width:0.33481708;stroke-linejoin:round;stroke-miterlimit:4;stroke-dasharray:none"/></g></svg>